<mxfile host="65bd71144e">
    <diagram id="NJoytFLGewrRsHq7LoWA" name="Page-1">
        <mxGraphModel dx="819" dy="681" grid="1" gridSize="10" guides="1" tooltips="1" connect="1" arrows="1" fold="1" page="1" pageScale="1" pageWidth="850" pageHeight="1100" math="0" shadow="0">
            <root>
                <mxCell id="0"/>
                <mxCell id="1" parent="0"/>
                <mxCell id="hR085DtqdN2WYx9QN-6D-63" value="" style="edgeStyle=orthogonalEdgeStyle;rounded=0;orthogonalLoop=1;jettySize=auto;html=1;fontSize=13;" parent="1" target="hR085DtqdN2WYx9QN-6D-62" edge="1">
                    <mxGeometry relative="1" as="geometry">
                        <mxPoint x="230" y="30" as="sourcePoint"/>
                    </mxGeometry>
                </mxCell>
                <mxCell id="hR085DtqdN2WYx9QN-6D-1" value="START" style="ellipse;whiteSpace=wrap;html=1;" parent="1" vertex="1">
                    <mxGeometry x="185" width="90" height="30" as="geometry"/>
                </mxCell>
                <mxCell id="hR085DtqdN2WYx9QN-6D-5" value="" style="edgeStyle=orthogonalEdgeStyle;rounded=0;orthogonalLoop=1;jettySize=auto;html=1;" parent="1" source="hR085DtqdN2WYx9QN-6D-2" target="hR085DtqdN2WYx9QN-6D-4" edge="1">
                    <mxGeometry relative="1" as="geometry"/>
                </mxCell>
                <mxCell id="hR085DtqdN2WYx9QN-6D-2" value="Display message, &lt;br&gt;&quot;Enter the location of hotel&quot;" style="shape=parallelogram;perimeter=parallelogramPerimeter;whiteSpace=wrap;html=1;fixedSize=1;" parent="1" vertex="1">
                    <mxGeometry x="140" y="145" width="180" height="55" as="geometry"/>
                </mxCell>
                <mxCell id="hR085DtqdN2WYx9QN-6D-13" value="" style="edgeStyle=orthogonalEdgeStyle;rounded=0;orthogonalLoop=1;jettySize=auto;html=1;" parent="1" source="hR085DtqdN2WYx9QN-6D-4" target="hR085DtqdN2WYx9QN-6D-8" edge="1">
                    <mxGeometry relative="1" as="geometry"/>
                </mxCell>
                <mxCell id="hR085DtqdN2WYx9QN-6D-4" value="Read location" style="shape=parallelogram;perimeter=parallelogramPerimeter;whiteSpace=wrap;html=1;fixedSize=1;" parent="1" vertex="1">
                    <mxGeometry x="170" y="230" width="120" height="60" as="geometry"/>
                </mxCell>
                <mxCell id="hR085DtqdN2WYx9QN-6D-12" value="" style="edgeStyle=orthogonalEdgeStyle;rounded=0;orthogonalLoop=1;jettySize=auto;html=1;" parent="1" source="hR085DtqdN2WYx9QN-6D-8" target="hR085DtqdN2WYx9QN-6D-11" edge="1">
                    <mxGeometry relative="1" as="geometry"/>
                </mxCell>
                <mxCell id="hR085DtqdN2WYx9QN-6D-8" value="Display message, &lt;br&gt;&quot;Enter the number of floors&quot;" style="shape=parallelogram;perimeter=parallelogramPerimeter;whiteSpace=wrap;html=1;fixedSize=1;" parent="1" vertex="1">
                    <mxGeometry x="140" y="330" width="180" height="55" as="geometry"/>
                </mxCell>
                <mxCell id="hR085DtqdN2WYx9QN-6D-15" value="" style="edgeStyle=orthogonalEdgeStyle;rounded=0;orthogonalLoop=1;jettySize=auto;html=1;" parent="1" source="hR085DtqdN2WYx9QN-6D-11" target="hR085DtqdN2WYx9QN-6D-14" edge="1">
                    <mxGeometry relative="1" as="geometry"/>
                </mxCell>
                <mxCell id="hR085DtqdN2WYx9QN-6D-11" value="Read #floors" style="shape=parallelogram;perimeter=parallelogramPerimeter;whiteSpace=wrap;html=1;fixedSize=1;" parent="1" vertex="1">
                    <mxGeometry x="170" y="430" width="120" height="60" as="geometry"/>
                </mxCell>
                <mxCell id="hR085DtqdN2WYx9QN-6D-16" style="edgeStyle=orthogonalEdgeStyle;rounded=0;orthogonalLoop=1;jettySize=auto;html=1;" parent="1" source="hR085DtqdN2WYx9QN-6D-14" edge="1">
                    <mxGeometry relative="1" as="geometry">
                        <mxPoint x="230" y="310" as="targetPoint"/>
                        <Array as="points">
                            <mxPoint x="340" y="560"/>
                            <mxPoint x="340" y="310"/>
                        </Array>
                    </mxGeometry>
                </mxCell>
                <mxCell id="hR085DtqdN2WYx9QN-6D-17" value="NO" style="edgeLabel;html=1;align=center;verticalAlign=middle;resizable=0;points=[];fontSize=16;" parent="hR085DtqdN2WYx9QN-6D-16" vertex="1" connectable="0">
                    <mxGeometry x="-0.8744" relative="1" as="geometry">
                        <mxPoint x="4" as="offset"/>
                    </mxGeometry>
                </mxCell>
                <mxCell id="hR085DtqdN2WYx9QN-6D-65" value="" style="edgeStyle=orthogonalEdgeStyle;rounded=0;orthogonalLoop=1;jettySize=auto;html=1;fontSize=13;" parent="1" source="hR085DtqdN2WYx9QN-6D-14" target="hR085DtqdN2WYx9QN-6D-55" edge="1">
                    <mxGeometry relative="1" as="geometry"/>
                </mxCell>
                <mxCell id="hR085DtqdN2WYx9QN-6D-14" value="is floors&amp;nbsp;&lt;br&gt;within range&lt;br&gt;1-5?" style="rhombus;whiteSpace=wrap;html=1;" parent="1" vertex="1">
                    <mxGeometry x="180" y="520" width="100" height="80" as="geometry"/>
                </mxCell>
                <mxCell id="hR085DtqdN2WYx9QN-6D-18" value="" style="edgeStyle=orthogonalEdgeStyle;rounded=0;orthogonalLoop=1;jettySize=auto;html=1;" parent="1" source="hR085DtqdN2WYx9QN-6D-19" target="hR085DtqdN2WYx9QN-6D-21" edge="1">
                    <mxGeometry relative="1" as="geometry"/>
                </mxCell>
                <mxCell id="hR085DtqdN2WYx9QN-6D-19" value="Display message, &lt;br&gt;&quot;Enter the number of rooms&quot;" style="shape=parallelogram;perimeter=parallelogramPerimeter;whiteSpace=wrap;html=1;fixedSize=1;" parent="1" vertex="1">
                    <mxGeometry x="140" y="750" width="180" height="55" as="geometry"/>
                </mxCell>
                <mxCell id="hR085DtqdN2WYx9QN-6D-20" value="" style="edgeStyle=orthogonalEdgeStyle;rounded=0;orthogonalLoop=1;jettySize=auto;html=1;" parent="1" source="hR085DtqdN2WYx9QN-6D-21" target="hR085DtqdN2WYx9QN-6D-24" edge="1">
                    <mxGeometry relative="1" as="geometry"/>
                </mxCell>
                <mxCell id="hR085DtqdN2WYx9QN-6D-21" value="Read rooms" style="shape=parallelogram;perimeter=parallelogramPerimeter;whiteSpace=wrap;html=1;fixedSize=1;" parent="1" vertex="1">
                    <mxGeometry x="170" y="840" width="120" height="60" as="geometry"/>
                </mxCell>
                <mxCell id="hR085DtqdN2WYx9QN-6D-26" style="edgeStyle=orthogonalEdgeStyle;rounded=0;orthogonalLoop=1;jettySize=auto;html=1;fontSize=16;" parent="1" source="hR085DtqdN2WYx9QN-6D-24" edge="1">
                    <mxGeometry relative="1" as="geometry">
                        <mxPoint x="230" y="750" as="targetPoint"/>
                        <Array as="points">
                            <mxPoint x="340" y="970"/>
                            <mxPoint x="340" y="730"/>
                            <mxPoint x="230" y="730"/>
                        </Array>
                    </mxGeometry>
                </mxCell>
                <mxCell id="hR085DtqdN2WYx9QN-6D-28" value="NO" style="edgeLabel;html=1;align=center;verticalAlign=middle;resizable=0;points=[];fontSize=16;" parent="hR085DtqdN2WYx9QN-6D-26" vertex="1" connectable="0">
                    <mxGeometry x="0.1209" y="-4" relative="1" as="geometry">
                        <mxPoint x="-34" y="181" as="offset"/>
                    </mxGeometry>
                </mxCell>
                <mxCell id="hR085DtqdN2WYx9QN-6D-57" value="" style="edgeStyle=orthogonalEdgeStyle;rounded=0;orthogonalLoop=1;jettySize=auto;html=1;fontSize=13;" parent="1" source="hR085DtqdN2WYx9QN-6D-24" target="hR085DtqdN2WYx9QN-6D-56" edge="1">
                    <mxGeometry relative="1" as="geometry"/>
                </mxCell>
                <mxCell id="hR085DtqdN2WYx9QN-6D-24" value="is floors&amp;nbsp;&lt;br&gt;within range&lt;br&gt;1-30?" style="rhombus;whiteSpace=wrap;html=1;" parent="1" vertex="1">
                    <mxGeometry x="180" y="930" width="100" height="80" as="geometry"/>
                </mxCell>
                <mxCell id="hR085DtqdN2WYx9QN-6D-71" value="" style="edgeStyle=orthogonalEdgeStyle;rounded=0;orthogonalLoop=1;jettySize=auto;html=1;fontSize=13;" parent="1" source="hR085DtqdN2WYx9QN-6D-32" target="hR085DtqdN2WYx9QN-6D-39" edge="1">
                    <mxGeometry relative="1" as="geometry"/>
                </mxCell>
                <mxCell id="hR085DtqdN2WYx9QN-6D-32" value="i &amp;lt; rooms?" style="rhombus;whiteSpace=wrap;html=1;fontSize=16;" parent="1" vertex="1">
                    <mxGeometry x="540" y="120" width="100" height="65" as="geometry"/>
                </mxCell>
                <mxCell id="hR085DtqdN2WYx9QN-6D-42" style="edgeStyle=orthogonalEdgeStyle;rounded=0;orthogonalLoop=1;jettySize=auto;html=1;fontSize=14;" parent="1" source="hR085DtqdN2WYx9QN-6D-35" edge="1">
                    <mxGeometry relative="1" as="geometry">
                        <mxPoint x="590" y="200" as="targetPoint"/>
                        <Array as="points">
                            <mxPoint x="730" y="470"/>
                            <mxPoint x="730" y="200"/>
                        </Array>
                    </mxGeometry>
                </mxCell>
                <mxCell id="hR085DtqdN2WYx9QN-6D-43" value="YES" style="edgeLabel;html=1;align=center;verticalAlign=middle;resizable=0;points=[];fontSize=14;" parent="hR085DtqdN2WYx9QN-6D-42" vertex="1" connectable="0">
                    <mxGeometry x="-0.1833" y="-5" relative="1" as="geometry">
                        <mxPoint x="-45" y="123" as="offset"/>
                    </mxGeometry>
                </mxCell>
                <mxCell id="hR085DtqdN2WYx9QN-6D-46" value="" style="edgeStyle=orthogonalEdgeStyle;rounded=0;orthogonalLoop=1;jettySize=auto;html=1;fontSize=13;" parent="1" source="hR085DtqdN2WYx9QN-6D-35" target="hR085DtqdN2WYx9QN-6D-45" edge="1">
                    <mxGeometry relative="1" as="geometry"/>
                </mxCell>
                <mxCell id="hR085DtqdN2WYx9QN-6D-35" value="&lt;font style=&quot;font-size: 12px&quot;&gt;occupied &lt;br&gt;rooms &amp;gt;&lt;br&gt;&amp;nbsp;# of rooms&lt;/font&gt;" style="rhombus;whiteSpace=wrap;html=1;fontSize=16;" parent="1" vertex="1">
                    <mxGeometry x="525" y="420" width="130" height="100" as="geometry"/>
                </mxCell>
                <mxCell id="hR085DtqdN2WYx9QN-6D-41" value="" style="edgeStyle=orthogonalEdgeStyle;rounded=0;orthogonalLoop=1;jettySize=auto;html=1;fontSize=14;" parent="1" source="hR085DtqdN2WYx9QN-6D-37" target="hR085DtqdN2WYx9QN-6D-35" edge="1">
                    <mxGeometry relative="1" as="geometry"/>
                </mxCell>
                <mxCell id="hR085DtqdN2WYx9QN-6D-37" value="&lt;font style=&quot;font-size: 13px&quot;&gt;find total # of&amp;nbsp;&amp;nbsp;&lt;br&gt;occupied rooms&lt;br&gt;by adding all values user inputed&amp;nbsp;&lt;/font&gt;" style="whiteSpace=wrap;html=1;fontSize=16;" parent="1" vertex="1">
                    <mxGeometry x="525" y="317.5" width="130" height="80" as="geometry"/>
                </mxCell>
                <mxCell id="hR085DtqdN2WYx9QN-6D-40" value="" style="edgeStyle=orthogonalEdgeStyle;rounded=0;orthogonalLoop=1;jettySize=auto;html=1;fontSize=13;" parent="1" source="hR085DtqdN2WYx9QN-6D-39" target="hR085DtqdN2WYx9QN-6D-37" edge="1">
                    <mxGeometry relative="1" as="geometry"/>
                </mxCell>
                <mxCell id="hR085DtqdN2WYx9QN-6D-39" value="&lt;span&gt;Ask user to enter &lt;br&gt;occupancy of single, &lt;br&gt;double, king and &lt;br&gt;suites on i floor.&lt;/span&gt;" style="shape=parallelogram;perimeter=parallelogramPerimeter;whiteSpace=wrap;html=1;fixedSize=1;fontSize=13;" parent="1" vertex="1">
                    <mxGeometry x="515" y="225" width="150" height="70" as="geometry"/>
                </mxCell>
                <mxCell id="hR085DtqdN2WYx9QN-6D-47" style="edgeStyle=orthogonalEdgeStyle;rounded=0;orthogonalLoop=1;jettySize=auto;html=1;fontSize=13;entryX=0;entryY=0.5;entryDx=0;entryDy=0;" parent="1" source="hR085DtqdN2WYx9QN-6D-45" target="hR085DtqdN2WYx9QN-6D-32" edge="1">
                    <mxGeometry relative="1" as="geometry">
                        <mxPoint x="490" y="110" as="targetPoint"/>
                        <Array as="points">
                            <mxPoint x="470" y="560"/>
                            <mxPoint x="470" y="153"/>
                        </Array>
                    </mxGeometry>
                </mxCell>
                <mxCell id="hR085DtqdN2WYx9QN-6D-73" value="" style="edgeStyle=orthogonalEdgeStyle;rounded=0;orthogonalLoop=1;jettySize=auto;html=1;fontSize=13;" parent="1" source="hR085DtqdN2WYx9QN-6D-45" target="hR085DtqdN2WYx9QN-6D-74" edge="1">
                    <mxGeometry relative="1" as="geometry">
                        <mxPoint x="590" y="640" as="targetPoint"/>
                    </mxGeometry>
                </mxCell>
                <mxCell id="hR085DtqdN2WYx9QN-6D-45" value="add 1 to i" style="whiteSpace=wrap;html=1;fontSize=16;" parent="1" vertex="1">
                    <mxGeometry x="547.5" y="545" width="85" height="30" as="geometry"/>
                </mxCell>
                <mxCell id="hR085DtqdN2WYx9QN-6D-58" value="" style="edgeStyle=orthogonalEdgeStyle;rounded=0;orthogonalLoop=1;jettySize=auto;html=1;fontSize=13;" parent="1" source="hR085DtqdN2WYx9QN-6D-55" target="hR085DtqdN2WYx9QN-6D-19" edge="1">
                    <mxGeometry relative="1" as="geometry"/>
                </mxCell>
                <mxCell id="hR085DtqdN2WYx9QN-6D-55" value="x &amp;lt; floors?" style="rhombus;whiteSpace=wrap;html=1;fontSize=16;" parent="1" vertex="1">
                    <mxGeometry x="177.5" y="620" width="105" height="95" as="geometry"/>
                </mxCell>
                <mxCell id="hR085DtqdN2WYx9QN-6D-59" style="edgeStyle=orthogonalEdgeStyle;rounded=0;orthogonalLoop=1;jettySize=auto;html=1;entryX=0;entryY=0.5;entryDx=0;entryDy=0;fontSize=13;" parent="1" source="hR085DtqdN2WYx9QN-6D-56" target="hR085DtqdN2WYx9QN-6D-55" edge="1">
                    <mxGeometry relative="1" as="geometry">
                        <Array as="points">
                            <mxPoint x="130" y="1050"/>
                            <mxPoint x="130" y="668"/>
                        </Array>
                    </mxGeometry>
                </mxCell>
                <mxCell id="hR085DtqdN2WYx9QN-6D-67" value="" style="edgeStyle=orthogonalEdgeStyle;rounded=0;orthogonalLoop=1;jettySize=auto;html=1;fontSize=13;" parent="1" source="hR085DtqdN2WYx9QN-6D-56" target="hR085DtqdN2WYx9QN-6D-66" edge="1">
                    <mxGeometry relative="1" as="geometry"/>
                </mxCell>
                <mxCell id="hR085DtqdN2WYx9QN-6D-56" value="add 1 to x" style="whiteSpace=wrap;html=1;fontSize=16;" parent="1" vertex="1">
                    <mxGeometry x="170" y="1030" width="120" height="40" as="geometry"/>
                </mxCell>
                <mxCell id="hR085DtqdN2WYx9QN-6D-64" value="" style="edgeStyle=orthogonalEdgeStyle;rounded=0;orthogonalLoop=1;jettySize=auto;html=1;fontSize=13;" parent="1" source="hR085DtqdN2WYx9QN-6D-62" target="hR085DtqdN2WYx9QN-6D-2" edge="1">
                    <mxGeometry relative="1" as="geometry"/>
                </mxCell>
                <mxCell id="hR085DtqdN2WYx9QN-6D-62" value="Declare constants for room rates, max and min # floors and rooms.&amp;nbsp;" style="rounded=0;whiteSpace=wrap;html=1;fontSize=13;" parent="1" vertex="1">
                    <mxGeometry x="170" y="50" width="120" height="60" as="geometry"/>
                </mxCell>
                <mxCell id="hR085DtqdN2WYx9QN-6D-66" value="A" style="ellipse;whiteSpace=wrap;html=1;aspect=fixed;fontSize=13;" parent="1" vertex="1">
                    <mxGeometry x="370" y="960" width="60" height="60" as="geometry"/>
                </mxCell>
                <mxCell id="hR085DtqdN2WYx9QN-6D-70" value="" style="edgeStyle=orthogonalEdgeStyle;rounded=0;orthogonalLoop=1;jettySize=auto;html=1;fontSize=13;" parent="1" source="hR085DtqdN2WYx9QN-6D-68" target="hR085DtqdN2WYx9QN-6D-32" edge="1">
                    <mxGeometry relative="1" as="geometry"/>
                </mxCell>
                <mxCell id="hR085DtqdN2WYx9QN-6D-68" value="A" style="ellipse;whiteSpace=wrap;html=1;aspect=fixed;fontSize=13;" parent="1" vertex="1">
                    <mxGeometry x="560" y="30" width="60" height="60" as="geometry"/>
                </mxCell>
                <mxCell id="hR085DtqdN2WYx9QN-6D-76" value="" style="edgeStyle=orthogonalEdgeStyle;rounded=0;orthogonalLoop=1;jettySize=auto;html=1;fontSize=13;" parent="1" source="hR085DtqdN2WYx9QN-6D-74" target="hR085DtqdN2WYx9QN-6D-75" edge="1">
                    <mxGeometry relative="1" as="geometry"/>
                </mxCell>
                <mxCell id="hR085DtqdN2WYx9QN-6D-74" value="Calculate&lt;br&gt;Hotel income (occupied rooms x rate per room),&lt;br&gt;occupied rooms (already in variable),&amp;nbsp;&lt;br&gt;unoccupied rooms (rooms - occupied rooms),&lt;br&gt;rate of occupancy &lt;br&gt;(occupied rooms / rooms) x 100,&lt;br&gt;" style="rounded=0;whiteSpace=wrap;html=1;fontSize=13;" parent="1" vertex="1">
                    <mxGeometry x="478.13" y="620" width="225" height="150" as="geometry"/>
                </mxCell>
                <mxCell id="hR085DtqdN2WYx9QN-6D-78" value="" style="edgeStyle=orthogonalEdgeStyle;rounded=0;orthogonalLoop=1;jettySize=auto;html=1;fontSize=13;" parent="1" source="hR085DtqdN2WYx9QN-6D-75" edge="1">
                    <mxGeometry relative="1" as="geometry">
                        <mxPoint x="590.0050000000001" y="960" as="targetPoint"/>
                    </mxGeometry>
                </mxCell>
                <mxCell id="hR085DtqdN2WYx9QN-6D-75" value="Display all information in&amp;nbsp;&lt;br&gt;orderly fashion,&amp;nbsp;&lt;br&gt;floor number with minimum rooms,&lt;br&gt;and message if occupancy is under 60 percent" style="shape=parallelogram;perimeter=parallelogramPerimeter;whiteSpace=wrap;html=1;fixedSize=1;rounded=0;fontSize=13;" parent="1" vertex="1">
                    <mxGeometry x="491.25" y="820" width="198.75" height="110" as="geometry"/>
                </mxCell>
                <mxCell id="hR085DtqdN2WYx9QN-6D-77" value="END" style="ellipse;whiteSpace=wrap;html=1;rounded=0;fontSize=13;" parent="1" vertex="1">
                    <mxGeometry x="530.625" y="960" width="120" height="60" as="geometry"/>
                </mxCell>
            </root>
        </mxGraphModel>
    </diagram>
</mxfile>